<svg xmlns="http://www.w3.org/2000/svg" version="1.1" xmlns:xlink="http://www.w3.org/1999/xlink" xmlns:svgjs="http://svgjs.com/svgjs" width="1440" height="560" preserveAspectRatio="none" viewBox="0 0 1440 560"><g mask="url(&quot;#SvgjsMask1000&quot;)" fill="none"><rect width="1440" height="560" x="0" y="0" fill="#0e2a47"></rect><path d="M-112.03 355.14L-112.03 355.14" stroke="#132e65" stroke-width="1.5"></path><path d="M-112.03 355.14L-63.49 527.03" stroke="#132e65" stroke-width="1.5"></path><path d="M-112.03 355.14L81.82 561.8" stroke="#132e65" stroke-width="1.5"></path><path d="M-112.03 355.14L197.53 512.72" stroke="#132e65" stroke-width="1.5"></path><path d="M-112.03 355.14L-66.24 710.56" stroke="#132e65" stroke-width="1.5"></path><path d="M-112.03 355.14L262.26 398.79" stroke="#132e65" stroke-width="1.5"></path><path d="M-63.49 527.03L-63.49 527.03" stroke="#132e65" stroke-width="1.5"></path><path d="M-63.49 527.03L81.82 561.8" stroke="#132e65" stroke-width="1.5"></path><path d="M-63.49 527.03L-66.24 710.56" stroke="#132e65" stroke-width="1.5"></path><path d="M-63.49 527.03L100.98 691.07" stroke="#132e65" stroke-width="1.5"></path><path d="M-63.49 527.03L197.53 512.72" stroke="#132e65" stroke-width="1.5"></path><path d="M-63.49 527.03L262.26 398.79" stroke="#132e65" stroke-width="1.5"></path><path d="M-66.24 710.56L-66.24 710.56" stroke="#132e65" stroke-width="1.5"></path><path d="M-66.24 710.56L100.98 691.07" stroke="#132e65" stroke-width="1.5"></path><path d="M-66.24 710.56L81.82 561.8" stroke="#132e65" stroke-width="1.5"></path><path d="M-66.24 710.56L197.53 512.72" stroke="#132e65" stroke-width="1.5"></path><path d="M81.82 561.8L81.82 561.8" stroke="#132e65" stroke-width="1.5"></path><path d="M81.82 561.8L197.53 512.72" stroke="#132e65" stroke-width="1.5"></path><path d="M81.82 561.8L100.98 691.07" stroke="#132e65" stroke-width="1.5"></path><path d="M81.82 561.8L262.26 398.79" stroke="#132e65" stroke-width="1.5"></path><path d="M81.82 561.8L351.31 521.45" stroke="#132e65" stroke-width="1.5"></path><path d="M100.98 691.07L100.98 691.07" stroke="#132e65" stroke-width="1.5"></path><path d="M100.98 691.07L197.53 512.72" stroke="#132e65" stroke-width="1.5"></path><path d="M100.98 691.07L351.31 521.45" stroke="#132e65" stroke-width="1.5"></path><path d="M100.98 691.07L403.54 701.2" stroke="#132e65" stroke-width="1.5"></path><path d="M262.26 398.79L262.26 398.79" stroke="#132e65" stroke-width="1.5"></path><path d="M262.26 398.79L357.89 354.22" stroke="#132e65" stroke-width="1.5"></path><path d="M262.26 398.79L197.53 512.72" stroke="#132e65" stroke-width="1.5"></path><path d="M262.26 398.79L351.31 521.45" stroke="#132e65" stroke-width="1.5"></path><path d="M197.53 512.72L197.53 512.72" stroke="#132e65" stroke-width="1.5"></path><path d="M357.89 354.22L357.89 354.22" stroke="#132e65" stroke-width="1.5"></path><path d="M357.89 354.22L351.31 521.45" stroke="#132e65" stroke-width="1.5"></path><path d="M357.89 354.22L561.02 375.94" stroke="#132e65" stroke-width="1.5"></path><path d="M357.89 354.22L197.53 512.72" stroke="#132e65" stroke-width="1.5"></path><path d="M357.89 354.22L637.67 237.45" stroke="#132e65" stroke-width="1.5"></path><path d="M351.31 521.45L351.31 521.45" stroke="#132e65" stroke-width="1.5"></path><path d="M351.31 521.45L197.53 512.72" stroke="#132e65" stroke-width="1.5"></path><path d="M403.54 701.2L403.54 701.2" stroke="#132e65" stroke-width="1.5"></path><path d="M403.54 701.2L502.37 698.45" stroke="#132e65" stroke-width="1.5"></path><path d="M403.54 701.2L351.31 521.45" stroke="#132e65" stroke-width="1.5"></path><path d="M561.02 375.94L561.02 375.94" stroke="#132e65" stroke-width="1.5"></path><path d="M561.02 375.94L690.5 356.15" stroke="#132e65" stroke-width="1.5"></path><path d="M561.02 375.94L637.67 237.45" stroke="#132e65" stroke-width="1.5"></path><path d="M561.02 375.94L645.34 520.83" stroke="#132e65" stroke-width="1.5"></path><path d="M561.02 375.94L351.31 521.45" stroke="#132e65" stroke-width="1.5"></path><path d="M502.37 698.45L502.37 698.45" stroke="#132e65" stroke-width="1.5"></path><path d="M502.37 698.45L657.69 659.32" stroke="#132e65" stroke-width="1.5"></path><path d="M637.67 237.45L637.67 237.45" stroke="#132e65" stroke-width="1.5"></path><path d="M637.67 237.45L690.5 356.15" stroke="#132e65" stroke-width="1.5"></path><path d="M637.67 237.45L804.7 206.27" stroke="#132e65" stroke-width="1.5"></path><path d="M637.67 237.45L840.69 100.99" stroke="#132e65" stroke-width="1.5"></path><path d="M637.67 237.45L844.15 408.05" stroke="#132e65" stroke-width="1.5"></path><path d="M690.5 356.15L690.5 356.15" stroke="#132e65" stroke-width="1.5"></path><path d="M690.5 356.15L844.15 408.05" stroke="#132e65" stroke-width="1.5"></path><path d="M690.5 356.15L645.34 520.83" stroke="#132e65" stroke-width="1.5"></path><path d="M690.5 356.15L804.7 206.27" stroke="#132e65" stroke-width="1.5"></path><path d="M645.34 520.83L645.34 520.83" stroke="#132e65" stroke-width="1.5"></path><path d="M645.34 520.83L657.69 659.32" stroke="#132e65" stroke-width="1.5"></path><path d="M645.34 520.83L800.6 533.01" stroke="#132e65" stroke-width="1.5"></path><path d="M657.69 659.32L657.69 659.32" stroke="#132e65" stroke-width="1.5"></path><path d="M840.69 100.99L840.69 100.99" stroke="#132e65" stroke-width="1.5"></path><path d="M840.69 100.99L804.7 206.27" stroke="#132e65" stroke-width="1.5"></path><path d="M840.69 100.99L983.5 69.79" stroke="#132e65" stroke-width="1.5"></path><path d="M840.69 100.99L1009.26 192.92" stroke="#132e65" stroke-width="1.5"></path><path d="M840.69 100.99L965.65 -92.78" stroke="#132e65" stroke-width="1.5"></path><path d="M840.69 100.99L1117.83 74.04" stroke="#132e65" stroke-width="1.5"></path><path d="M804.7 206.27L804.7 206.27" stroke="#132e65" stroke-width="1.5"></path><path d="M804.7 206.27L1009.26 192.92" stroke="#132e65" stroke-width="1.5"></path><path d="M844.15 408.05L844.15 408.05" stroke="#132e65" stroke-width="1.5"></path><path d="M844.15 408.05L800.6 533.01" stroke="#132e65" stroke-width="1.5"></path><path d="M844.15 408.05L979.89 403.12" stroke="#132e65" stroke-width="1.5"></path><path d="M800.6 533.01L800.6 533.01" stroke="#132e65" stroke-width="1.5"></path><path d="M800.6 533.01L816.91 685.6" stroke="#132e65" stroke-width="1.5"></path><path d="M800.6 533.01L657.69 659.32" stroke="#132e65" stroke-width="1.5"></path><path d="M800.6 533.01L690.5 356.15" stroke="#132e65" stroke-width="1.5"></path><path d="M816.91 685.6L816.91 685.6" stroke="#132e65" stroke-width="1.5"></path><path d="M816.91 685.6L657.69 659.32" stroke="#132e65" stroke-width="1.5"></path><path d="M816.91 685.6L1006.53 640.7" stroke="#132e65" stroke-width="1.5"></path><path d="M816.91 685.6L645.34 520.83" stroke="#132e65" stroke-width="1.5"></path><path d="M965.65 -92.78L965.65 -92.78" stroke="#132e65" stroke-width="1.5"></path><path d="M965.65 -92.78L1115.83 -56.32" stroke="#132e65" stroke-width="1.5"></path><path d="M965.65 -92.78L983.5 69.79" stroke="#132e65" stroke-width="1.5"></path><path d="M965.65 -92.78L1117.83 74.04" stroke="#132e65" stroke-width="1.5"></path><path d="M983.5 69.79L983.5 69.79" stroke="#132e65" stroke-width="1.5"></path><path d="M983.5 69.79L1009.26 192.92" stroke="#132e65" stroke-width="1.5"></path><path d="M983.5 69.79L1117.83 74.04" stroke="#132e65" stroke-width="1.5"></path><path d="M1009.26 192.92L1009.26 192.92" stroke="#132e65" stroke-width="1.5"></path><path d="M1009.26 192.92L1117.83 74.04" stroke="#132e65" stroke-width="1.5"></path><path d="M1009.26 192.92L1159.86 261.88" stroke="#132e65" stroke-width="1.5"></path><path d="M979.89 403.12L979.89 403.12" stroke="#132e65" stroke-width="1.5"></path><path d="M979.89 403.12L1115.88 396.48" stroke="#132e65" stroke-width="1.5"></path><path d="M979.89 403.12L1009.26 192.92" stroke="#132e65" stroke-width="1.5"></path><path d="M979.89 403.12L800.6 533.01" stroke="#132e65" stroke-width="1.5"></path><path d="M979.89 403.12L1159.86 261.88" stroke="#132e65" stroke-width="1.5"></path><path d="M1006.53 640.7L1006.53 640.7" stroke="#132e65" stroke-width="1.5"></path><path d="M1006.53 640.7L1158.09 698.34" stroke="#132e65" stroke-width="1.5"></path><path d="M1006.53 640.7L800.6 533.01" stroke="#132e65" stroke-width="1.5"></path><path d="M1006.53 640.7L979.89 403.12" stroke="#132e65" stroke-width="1.5"></path><path d="M1006.53 640.7L1115.88 396.48" stroke="#132e65" stroke-width="1.5"></path><path d="M1006.53 640.7L1283.25 663.17" stroke="#132e65" stroke-width="1.5"></path><path d="M1115.83 -56.32L1115.83 -56.32" stroke="#132e65" stroke-width="1.5"></path><path d="M1115.83 -56.32L1117.83 74.04" stroke="#132e65" stroke-width="1.5"></path><path d="M1115.83 -56.32L1267.94 -77.66" stroke="#132e65" stroke-width="1.5"></path><path d="M1115.83 -56.32L983.5 69.79" stroke="#132e65" stroke-width="1.5"></path><path d="M1115.83 -56.32L1248 103.46" stroke="#132e65" stroke-width="1.5"></path><path d="M1115.83 -56.32L1009.26 192.92" stroke="#132e65" stroke-width="1.5"></path><path d="M1117.83 74.04L1117.83 74.04" stroke="#132e65" stroke-width="1.5"></path><path d="M1117.83 74.04L1248 103.46" stroke="#132e65" stroke-width="1.5"></path><path d="M1117.83 74.04L1159.86 261.88" stroke="#132e65" stroke-width="1.5"></path><path d="M1159.86 261.88L1159.86 261.88" stroke="#132e65" stroke-width="1.5"></path><path d="M1159.86 261.88L1115.88 396.48" stroke="#132e65" stroke-width="1.5"></path><path d="M1159.86 261.88L1297.42 190.24" stroke="#132e65" stroke-width="1.5"></path><path d="M1115.88 396.48L1115.88 396.48" stroke="#132e65" stroke-width="1.5"></path><path d="M1158.09 698.34L1158.09 698.34" stroke="#132e65" stroke-width="1.5"></path><path d="M1158.09 698.34L1283.25 663.17" stroke="#132e65" stroke-width="1.5"></path><path d="M1267.94 -77.66L1267.94 -77.66" stroke="#132e65" stroke-width="1.5"></path><path d="M1267.94 -77.66L1248 103.46" stroke="#132e65" stroke-width="1.5"></path><path d="M1267.94 -77.66L1460.22 -104.97" stroke="#132e65" stroke-width="1.5"></path><path d="M1267.94 -77.66L1117.83 74.04" stroke="#132e65" stroke-width="1.5"></path><path d="M1248 103.46L1248 103.46" stroke="#132e65" stroke-width="1.5"></path><path d="M1248 103.46L1297.42 190.24" stroke="#132e65" stroke-width="1.5"></path><path d="M1248 103.46L1159.86 261.88" stroke="#132e65" stroke-width="1.5"></path><path d="M1248 103.46L1415.25 216.67" stroke="#132e65" stroke-width="1.5"></path><path d="M1297.42 190.24L1297.42 190.24" stroke="#132e65" stroke-width="1.5"></path><path d="M1297.42 190.24L1415.25 216.67" stroke="#132e65" stroke-width="1.5"></path><path d="M1297.42 190.24L1451.62 110.32" stroke="#132e65" stroke-width="1.5"></path><path d="M1297.42 190.24L1281.27 388.3" stroke="#132e65" stroke-width="1.5"></path><path d="M1281.27 388.3L1281.27 388.3" stroke="#132e65" stroke-width="1.5"></path><path d="M1281.27 388.3L1394.38 390.81" stroke="#132e65" stroke-width="1.5"></path><path d="M1292.82 556.49L1292.82 556.49" stroke="#132e65" stroke-width="1.5"></path><path d="M1292.82 556.49L1283.25 663.17" stroke="#132e65" stroke-width="1.5"></path><path d="M1292.82 556.49L1455.28 533.65" stroke="#132e65" stroke-width="1.5"></path><path d="M1292.82 556.49L1281.27 388.3" stroke="#132e65" stroke-width="1.5"></path><path d="M1292.82 556.49L1461.3 638.25" stroke="#132e65" stroke-width="1.5"></path><path d="M1292.82 556.49L1394.38 390.81" stroke="#132e65" stroke-width="1.5"></path><path d="M1292.82 556.49L1158.09 698.34" stroke="#132e65" stroke-width="1.5"></path><path d="M1283.25 663.17L1283.25 663.17" stroke="#132e65" stroke-width="1.5"></path><path d="M1283.25 663.17L1461.3 638.25" stroke="#132e65" stroke-width="1.5"></path><path d="M1283.25 663.17L1455.28 533.65" stroke="#132e65" stroke-width="1.5"></path><path d="M1283.25 663.17L1539.15 641.87" stroke="#132e65" stroke-width="1.5"></path><path d="M1460.22 -104.97L1460.22 -104.97" stroke="#132e65" stroke-width="1.5"></path><path d="M1460.22 -104.97L1543.85 -62.4" stroke="#132e65" stroke-width="1.5"></path><path d="M1460.22 -104.97L1606.94 39.62" stroke="#132e65" stroke-width="1.5"></path><path d="M1451.62 110.32L1451.62 110.32" stroke="#132e65" stroke-width="1.5"></path><path d="M1451.62 110.32L1415.25 216.67" stroke="#132e65" stroke-width="1.5"></path><path d="M1451.62 110.32L1606.94 39.62" stroke="#132e65" stroke-width="1.5"></path><path d="M1451.62 110.32L1569.63 240.76" stroke="#132e65" stroke-width="1.5"></path><path d="M1451.62 110.32L1543.85 -62.4" stroke="#132e65" stroke-width="1.5"></path><path d="M1415.25 216.67L1415.25 216.67" stroke="#132e65" stroke-width="1.5"></path><path d="M1415.25 216.67L1569.63 240.76" stroke="#132e65" stroke-width="1.5"></path><path d="M1394.38 390.81L1394.38 390.81" stroke="#132e65" stroke-width="1.5"></path><path d="M1394.38 390.81L1538.32 355.53" stroke="#132e65" stroke-width="1.5"></path><path d="M1394.38 390.81L1455.28 533.65" stroke="#132e65" stroke-width="1.5"></path><path d="M1394.38 390.81L1415.25 216.67" stroke="#132e65" stroke-width="1.5"></path><path d="M1394.38 390.81L1297.42 190.24" stroke="#132e65" stroke-width="1.5"></path><path d="M1455.28 533.65L1455.28 533.65" stroke="#132e65" stroke-width="1.5"></path><path d="M1455.28 533.65L1461.3 638.25" stroke="#132e65" stroke-width="1.5"></path><path d="M1455.28 533.65L1570.5 553.15" stroke="#132e65" stroke-width="1.5"></path><path d="M1461.3 638.25L1461.3 638.25" stroke="#132e65" stroke-width="1.5"></path><path d="M1461.3 638.25L1539.15 641.87" stroke="#132e65" stroke-width="1.5"></path><path d="M1543.85 -62.4L1543.85 -62.4" stroke="#132e65" stroke-width="1.5"></path><path d="M1543.85 -62.4L1606.94 39.62" stroke="#132e65" stroke-width="1.5"></path><path d="M1543.85 -62.4L1267.94 -77.66" stroke="#132e65" stroke-width="1.5"></path><path d="M1606.94 39.62L1606.94 39.62" stroke="#132e65" stroke-width="1.5"></path><path d="M1569.63 240.76L1569.63 240.76" stroke="#132e65" stroke-width="1.5"></path><path d="M1569.63 240.76L1538.32 355.53" stroke="#132e65" stroke-width="1.5"></path><path d="M1538.32 355.53L1538.32 355.53" stroke="#132e65" stroke-width="1.5"></path><path d="M1570.5 553.15L1570.5 553.15" stroke="#132e65" stroke-width="1.5"></path><path d="M1570.5 553.15L1539.15 641.87" stroke="#132e65" stroke-width="1.5"></path><path d="M1570.5 553.15L1461.3 638.25" stroke="#132e65" stroke-width="1.5"></path><path d="M1539.15 641.87L1539.15 641.87" stroke="#132e65" stroke-width="1.5"></path><path d="M1539.15 641.87L1455.28 533.65" stroke="#132e65" stroke-width="1.5"></path><path d="M1539.15 641.87L1292.82 556.49" stroke="#132e65" stroke-width="1.5"></path><circle r="5" cx="-112.03" cy="355.14" fill="#132e65"></circle><circle r="5" cx="-63.49" cy="527.03" fill="#132e65"></circle><circle r="5" cx="-66.24" cy="710.56" fill="#132e65"></circle><circle r="5" cx="81.82" cy="561.8" fill="#132e65"></circle><circle r="5" cx="100.98" cy="691.07" fill="#132e65"></circle><circle r="5" cx="262.26" cy="398.79" fill="#132e65"></circle><circle r="5" cx="197.53" cy="512.72" fill="#132e65"></circle><circle r="5" cx="357.89" cy="354.22" fill="#132e65"></circle><circle r="5" cx="351.31" cy="521.45" fill="#132e65"></circle><circle r="5" cx="403.54" cy="701.2" fill="#132e65"></circle><circle r="5" cx="561.02" cy="375.94" fill="#132e65"></circle><circle r="5" cx="502.37" cy="698.45" fill="#132e65"></circle><circle r="5" cx="637.67" cy="237.45" fill="#132e65"></circle><circle r="5" cx="690.5" cy="356.15" fill="#132e65"></circle><circle r="5" cx="645.34" cy="520.83" fill="#132e65"></circle><circle r="5" cx="657.69" cy="659.32" fill="#132e65"></circle><circle r="5" cx="840.69" cy="100.99" fill="#132e65"></circle><circle r="5" cx="804.7" cy="206.27" fill="#132e65"></circle><circle r="5" cx="844.15" cy="408.05" fill="#132e65"></circle><circle r="5" cx="800.6" cy="533.01" fill="#132e65"></circle><circle r="5" cx="816.91" cy="685.6" fill="#132e65"></circle><circle r="5" cx="965.65" cy="-92.78" fill="#132e65"></circle><circle r="5" cx="983.5" cy="69.79" fill="#132e65"></circle><circle r="5" cx="1009.26" cy="192.92" fill="#132e65"></circle><circle r="5" cx="979.89" cy="403.12" fill="#132e65"></circle><circle r="5" cx="1006.53" cy="640.7" fill="#132e65"></circle><circle r="5" cx="1115.83" cy="-56.32" fill="#132e65"></circle><circle r="5" cx="1117.83" cy="74.04" fill="#132e65"></circle><circle r="5" cx="1159.86" cy="261.88" fill="#132e65"></circle><circle r="5" cx="1115.88" cy="396.48" fill="#132e65"></circle><circle r="5" cx="1158.09" cy="698.34" fill="#132e65"></circle><circle r="5" cx="1267.94" cy="-77.66" fill="#132e65"></circle><circle r="5" cx="1248" cy="103.46" fill="#132e65"></circle><circle r="5" cx="1297.42" cy="190.24" fill="#132e65"></circle><circle r="5" cx="1281.27" cy="388.3" fill="#132e65"></circle><circle r="5" cx="1292.82" cy="556.49" fill="#132e65"></circle><circle r="5" cx="1283.25" cy="663.17" fill="#132e65"></circle><circle r="5" cx="1460.22" cy="-104.97" fill="#132e65"></circle><circle r="5" cx="1451.62" cy="110.32" fill="#132e65"></circle><circle r="5" cx="1415.25" cy="216.67" fill="#132e65"></circle><circle r="5" cx="1394.38" cy="390.81" fill="#132e65"></circle><circle r="5" cx="1455.28" cy="533.65" fill="#132e65"></circle><circle r="5" cx="1461.3" cy="638.25" fill="#132e65"></circle><circle r="5" cx="1543.85" cy="-62.4" fill="#132e65"></circle><circle r="5" cx="1606.94" cy="39.62" fill="#132e65"></circle><circle r="5" cx="1569.63" cy="240.76" fill="#132e65"></circle><circle r="5" cx="1538.32" cy="355.53" fill="#132e65"></circle><circle r="5" cx="1570.5" cy="553.15" fill="#132e65"></circle><circle r="5" cx="1539.15" cy="641.87" fill="#132e65"></circle><path d="M841.45 340.37L841.45 340.37" stroke="hsl(228.5, 77.2%, 51.5%)" stroke-width="1.5"></path><path d="M841.45 340.37L1011.06 357.3" stroke="hsl(228.5, 77.2%, 51.5%)" stroke-width="1.5"></path><path d="M841.45 340.37L639.78 386.88" stroke="hsl(228.5, 77.2%, 51.5%)" stroke-width="1.5"></path><path d="M973.95 521.8L973.95 521.8" stroke="hsl(228.5, 77.2%, 51.5%)" stroke-width="1.5"></path><path d="M973.95 521.8L1002.85 644.31" stroke="hsl(228.5, 77.2%, 51.5%)" stroke-width="1.5"></path><path d="M973.95 521.8L1127.72 535.59" stroke="hsl(228.5, 77.2%, 51.5%)" stroke-width="1.5"></path><path d="M973.95 521.8L1011.06 357.3" stroke="hsl(228.5, 77.2%, 51.5%)" stroke-width="1.5"></path><path d="M973.95 521.8L1097.48 403.2" stroke="hsl(228.5, 77.2%, 51.5%)" stroke-width="1.5"></path><path d="M973.95 521.8L860.81 698.78" stroke="hsl(228.5, 77.2%, 51.5%)" stroke-width="1.5"></path><path d="M973.95 521.8L841.45 340.37" stroke="hsl(228.5, 77.2%, 51.5%)" stroke-width="1.5"></path><path d="M1157.9 103.91L1157.9 103.91" stroke="hsl(228.5, 77.2%, 51.5%)" stroke-width="1.5"></path><path d="M1157.9 103.91L1142.88 191.35" stroke="hsl(228.5, 77.2%, 51.5%)" stroke-width="1.5"></path><path d="M1157.9 103.91L1288.03 76.7" stroke="hsl(228.5, 77.2%, 51.5%)" stroke-width="1.5"></path><path d="M1140.91 680L1140.91 680" stroke="hsl(228.5, 77.2%, 51.5%)" stroke-width="1.5"></path><path d="M1140.91 680L1002.85 644.31" stroke="hsl(228.5, 77.2%, 51.5%)" stroke-width="1.5"></path><path d="M1140.91 680L1127.72 535.59" stroke="hsl(228.5, 77.2%, 51.5%)" stroke-width="1.5"></path><path d="M1280.85 -112.47L1280.85 -112.47" stroke="hsl(228.5, 77.2%, 51.5%)" stroke-width="1.5"></path><path d="M1280.85 -112.47L1156.91 -38.59" stroke="hsl(228.5, 77.2%, 51.5%)" stroke-width="1.5"></path><path d="M1280.85 -112.47L1441.64 -41.95" stroke="hsl(228.5, 77.2%, 51.5%)" stroke-width="1.5"></path><path d="M1458.96 688.11L1458.96 688.11" stroke="hsl(228.5, 77.2%, 51.5%)" stroke-width="1.5"></path><path d="M1458.96 688.11L1565.19 687.86" stroke="hsl(228.5, 77.2%, 51.5%)" stroke-width="1.5"></path><path d="M1458.96 688.11L1443.19 546.45" stroke="hsl(228.5, 77.2%, 51.5%)" stroke-width="1.5"></path><path d="M1458.96 688.11L1542.17 557.67" stroke="hsl(228.5, 77.2%, 51.5%)" stroke-width="1.5"></path><path d="M1458.96 688.11L1302.99 639.11" stroke="hsl(228.5, 77.2%, 51.5%)" stroke-width="1.5"></path><path d="M1458.96 688.11L1272.83 505.2" stroke="hsl(228.5, 77.2%, 51.5%)" stroke-width="1.5"></path><path d="M1458.96 688.11L1140.91 680" stroke="hsl(228.5, 77.2%, 51.5%)" stroke-width="1.5"></path><path d="M-65.55 494.67L-65.55 494.67" stroke="hsl(228.5, 77.2%, 51.5%)" stroke-width="1.5"></path><path d="M-65.55 494.67L77.67 500.67" stroke="hsl(228.5, 77.2%, 51.5%)" stroke-width="1.5"></path><path d="M-65.55 494.67L-93.53 677.47" stroke="hsl(228.5, 77.2%, 51.5%)" stroke-width="1.5"></path><path d="M-65.55 494.67L70.16 701.69" stroke="hsl(228.5, 77.2%, 51.5%)" stroke-width="1.5"></path><path d="M-65.55 494.67L259.5 542.86" stroke="hsl(228.5, 77.2%, 51.5%)" stroke-width="1.5"></path><path d="M-93.53 677.47L-93.53 677.47" stroke="hsl(228.5, 77.2%, 51.5%)" stroke-width="1.5"></path><path d="M-93.53 677.47L70.16 701.69" stroke="hsl(228.5, 77.2%, 51.5%)" stroke-width="1.5"></path><path d="M-93.53 677.47L77.67 500.67" stroke="hsl(228.5, 77.2%, 51.5%)" stroke-width="1.5"></path><path d="M-93.53 677.47L200.24 708.71" stroke="hsl(228.5, 77.2%, 51.5%)" stroke-width="1.5"></path><path d="M77.67 500.67L77.67 500.67" stroke="hsl(228.5, 77.2%, 51.5%)" stroke-width="1.5"></path><path d="M77.67 500.67L259.5 542.86" stroke="hsl(228.5, 77.2%, 51.5%)" stroke-width="1.5"></path><path d="M77.67 500.67L70.16 701.69" stroke="hsl(228.5, 77.2%, 51.5%)" stroke-width="1.5"></path><path d="M77.67 500.67L200.24 708.71" stroke="hsl(228.5, 77.2%, 51.5%)" stroke-width="1.5"></path><path d="M70.16 701.69L70.16 701.69" stroke="hsl(228.5, 77.2%, 51.5%)" stroke-width="1.5"></path><path d="M70.16 701.69L200.24 708.71" stroke="hsl(228.5, 77.2%, 51.5%)" stroke-width="1.5"></path><path d="M70.16 701.69L259.5 542.86" stroke="hsl(228.5, 77.2%, 51.5%)" stroke-width="1.5"></path><path d="M259.5 542.86L259.5 542.86" stroke="hsl(228.5, 77.2%, 51.5%)" stroke-width="1.5"></path><path d="M259.5 542.86L387.63 517.95" stroke="hsl(228.5, 77.2%, 51.5%)" stroke-width="1.5"></path><path d="M259.5 542.86L200.24 708.71" stroke="hsl(228.5, 77.2%, 51.5%)" stroke-width="1.5"></path><path d="M259.5 542.86L382.73 700.45" stroke="hsl(228.5, 77.2%, 51.5%)" stroke-width="1.5"></path><path d="M259.5 542.86L515.01 534.44" stroke="hsl(228.5, 77.2%, 51.5%)" stroke-width="1.5"></path><path d="M200.24 708.71L200.24 708.71" stroke="hsl(228.5, 77.2%, 51.5%)" stroke-width="1.5"></path><path d="M200.24 708.71L382.73 700.45" stroke="hsl(228.5, 77.2%, 51.5%)" stroke-width="1.5"></path><path d="M387.63 517.95L387.63 517.95" stroke="hsl(228.5, 77.2%, 51.5%)" stroke-width="1.5"></path><path d="M387.63 517.95L515.01 534.44" stroke="hsl(228.5, 77.2%, 51.5%)" stroke-width="1.5"></path><path d="M387.63 517.95L382.73 700.45" stroke="hsl(228.5, 77.2%, 51.5%)" stroke-width="1.5"></path><path d="M387.63 517.95L527.37 700.32" stroke="hsl(228.5, 77.2%, 51.5%)" stroke-width="1.5"></path><path d="M387.63 517.95L200.24 708.71" stroke="hsl(228.5, 77.2%, 51.5%)" stroke-width="1.5"></path><path d="M382.73 700.45L382.73 700.45" stroke="hsl(228.5, 77.2%, 51.5%)" stroke-width="1.5"></path><path d="M382.73 700.45L527.37 700.32" stroke="hsl(228.5, 77.2%, 51.5%)" stroke-width="1.5"></path><path d="M515.01 534.44L515.01 534.44" stroke="hsl(228.5, 77.2%, 51.5%)" stroke-width="1.5"></path><path d="M515.01 534.44L662.87 488.62" stroke="hsl(228.5, 77.2%, 51.5%)" stroke-width="1.5"></path><path d="M515.01 534.44L527.37 700.32" stroke="hsl(228.5, 77.2%, 51.5%)" stroke-width="1.5"></path><path d="M515.01 534.44L639.78 386.88" stroke="hsl(228.5, 77.2%, 51.5%)" stroke-width="1.5"></path><path d="M515.01 534.44L382.73 700.45" stroke="hsl(228.5, 77.2%, 51.5%)" stroke-width="1.5"></path><path d="M527.37 700.32L527.37 700.32" stroke="hsl(228.5, 77.2%, 51.5%)" stroke-width="1.5"></path><path d="M639.78 386.88L639.78 386.88" stroke="hsl(228.5, 77.2%, 51.5%)" stroke-width="1.5"></path><path d="M639.78 386.88L662.87 488.62" stroke="hsl(228.5, 77.2%, 51.5%)" stroke-width="1.5"></path><path d="M639.78 386.88L706.3 641.63" stroke="hsl(228.5, 77.2%, 51.5%)" stroke-width="1.5"></path><path d="M662.87 488.62L662.87 488.62" stroke="hsl(228.5, 77.2%, 51.5%)" stroke-width="1.5"></path><path d="M662.87 488.62L706.3 641.63" stroke="hsl(228.5, 77.2%, 51.5%)" stroke-width="1.5"></path><path d="M706.3 641.63L706.3 641.63" stroke="hsl(228.5, 77.2%, 51.5%)" stroke-width="1.5"></path><path d="M860.81 698.78L860.81 698.78" stroke="hsl(228.5, 77.2%, 51.5%)" stroke-width="1.5"></path><path d="M860.81 698.78L1002.85 644.31" stroke="hsl(228.5, 77.2%, 51.5%)" stroke-width="1.5"></path><path d="M860.81 698.78L706.3 641.63" stroke="hsl(228.5, 77.2%, 51.5%)" stroke-width="1.5"></path><path d="M860.81 698.78L1140.91 680" stroke="hsl(228.5, 77.2%, 51.5%)" stroke-width="1.5"></path><path d="M860.81 698.78L662.87 488.62" stroke="hsl(228.5, 77.2%, 51.5%)" stroke-width="1.5"></path><path d="M1011.06 357.3L1011.06 357.3" stroke="hsl(228.5, 77.2%, 51.5%)" stroke-width="1.5"></path><path d="M1011.06 357.3L1097.48 403.2" stroke="hsl(228.5, 77.2%, 51.5%)" stroke-width="1.5"></path><path d="M1011.06 357.3L1142.88 191.35" stroke="hsl(228.5, 77.2%, 51.5%)" stroke-width="1.5"></path><path d="M1002.85 644.31L1002.85 644.31" stroke="hsl(228.5, 77.2%, 51.5%)" stroke-width="1.5"></path><path d="M1002.85 644.31L1127.72 535.59" stroke="hsl(228.5, 77.2%, 51.5%)" stroke-width="1.5"></path><path d="M1156.91 -38.59L1156.91 -38.59" stroke="hsl(228.5, 77.2%, 51.5%)" stroke-width="1.5"></path><path d="M1156.91 -38.59L1157.9 103.91" stroke="hsl(228.5, 77.2%, 51.5%)" stroke-width="1.5"></path><path d="M1156.91 -38.59L1288.03 76.7" stroke="hsl(228.5, 77.2%, 51.5%)" stroke-width="1.5"></path><path d="M1156.91 -38.59L1142.88 191.35" stroke="hsl(228.5, 77.2%, 51.5%)" stroke-width="1.5"></path><path d="M1142.88 191.35L1142.88 191.35" stroke="hsl(228.5, 77.2%, 51.5%)" stroke-width="1.5"></path><path d="M1142.88 191.35L1286.14 225" stroke="hsl(228.5, 77.2%, 51.5%)" stroke-width="1.5"></path><path d="M1142.88 191.35L1288.03 76.7" stroke="hsl(228.5, 77.2%, 51.5%)" stroke-width="1.5"></path><path d="M1097.48 403.2L1097.48 403.2" stroke="hsl(228.5, 77.2%, 51.5%)" stroke-width="1.5"></path><path d="M1097.48 403.2L1127.72 535.59" stroke="hsl(228.5, 77.2%, 51.5%)" stroke-width="1.5"></path><path d="M1097.48 403.2L1265.77 394.78" stroke="hsl(228.5, 77.2%, 51.5%)" stroke-width="1.5"></path><path d="M1097.48 403.2L1272.83 505.2" stroke="hsl(228.5, 77.2%, 51.5%)" stroke-width="1.5"></path><path d="M1097.48 403.2L1142.88 191.35" stroke="hsl(228.5, 77.2%, 51.5%)" stroke-width="1.5"></path><path d="M1127.72 535.59L1127.72 535.59" stroke="hsl(228.5, 77.2%, 51.5%)" stroke-width="1.5"></path><path d="M1127.72 535.59L1272.83 505.2" stroke="hsl(228.5, 77.2%, 51.5%)" stroke-width="1.5"></path><path d="M1288.03 76.7L1288.03 76.7" stroke="hsl(228.5, 77.2%, 51.5%)" stroke-width="1.5"></path><path d="M1288.03 76.7L1411.15 77.27" stroke="hsl(228.5, 77.2%, 51.5%)" stroke-width="1.5"></path><path d="M1288.03 76.7L1286.14 225" stroke="hsl(228.5, 77.2%, 51.5%)" stroke-width="1.5"></path><path d="M1286.14 225L1286.14 225" stroke="hsl(228.5, 77.2%, 51.5%)" stroke-width="1.5"></path><path d="M1286.14 225L1418.11 194.5" stroke="hsl(228.5, 77.2%, 51.5%)" stroke-width="1.5"></path><path d="M1265.77 394.78L1265.77 394.78" stroke="hsl(228.5, 77.2%, 51.5%)" stroke-width="1.5"></path><path d="M1265.77 394.78L1272.83 505.2" stroke="hsl(228.5, 77.2%, 51.5%)" stroke-width="1.5"></path><path d="M1265.77 394.78L1286.14 225" stroke="hsl(228.5, 77.2%, 51.5%)" stroke-width="1.5"></path><path d="M1265.77 394.78L1127.72 535.59" stroke="hsl(228.5, 77.2%, 51.5%)" stroke-width="1.5"></path><path d="M1265.77 394.78L1461.66 342.5" stroke="hsl(228.5, 77.2%, 51.5%)" stroke-width="1.5"></path><path d="M1265.77 394.78L1443.19 546.45" stroke="hsl(228.5, 77.2%, 51.5%)" stroke-width="1.5"></path><path d="M1272.83 505.2L1272.83 505.2" stroke="hsl(228.5, 77.2%, 51.5%)" stroke-width="1.5"></path><path d="M1302.99 639.11L1302.99 639.11" stroke="hsl(228.5, 77.2%, 51.5%)" stroke-width="1.5"></path><path d="M1302.99 639.11L1272.83 505.2" stroke="hsl(228.5, 77.2%, 51.5%)" stroke-width="1.5"></path><path d="M1302.99 639.11L1140.91 680" stroke="hsl(228.5, 77.2%, 51.5%)" stroke-width="1.5"></path><path d="M1441.64 -41.95L1441.64 -41.95" stroke="hsl(228.5, 77.2%, 51.5%)" stroke-width="1.5"></path><path d="M1441.64 -41.95L1411.15 77.27" stroke="hsl(228.5, 77.2%, 51.5%)" stroke-width="1.5"></path><path d="M1441.64 -41.95L1599.66 -112.02" stroke="hsl(228.5, 77.2%, 51.5%)" stroke-width="1.5"></path><path d="M1441.64 -41.95L1288.03 76.7" stroke="hsl(228.5, 77.2%, 51.5%)" stroke-width="1.5"></path><path d="M1441.64 -41.95L1612.06 84.36" stroke="hsl(228.5, 77.2%, 51.5%)" stroke-width="1.5"></path><path d="M1411.15 77.27L1411.15 77.27" stroke="hsl(228.5, 77.2%, 51.5%)" stroke-width="1.5"></path><path d="M1411.15 77.27L1418.11 194.5" stroke="hsl(228.5, 77.2%, 51.5%)" stroke-width="1.5"></path><path d="M1411.15 77.27L1547.03 206.91" stroke="hsl(228.5, 77.2%, 51.5%)" stroke-width="1.5"></path><path d="M1418.11 194.5L1418.11 194.5" stroke="hsl(228.5, 77.2%, 51.5%)" stroke-width="1.5"></path><path d="M1418.11 194.5L1547.03 206.91" stroke="hsl(228.5, 77.2%, 51.5%)" stroke-width="1.5"></path><path d="M1418.11 194.5L1461.66 342.5" stroke="hsl(228.5, 77.2%, 51.5%)" stroke-width="1.5"></path><path d="M1461.66 342.5L1461.66 342.5" stroke="hsl(228.5, 77.2%, 51.5%)" stroke-width="1.5"></path><path d="M1461.66 342.5L1587.95 375.12" stroke="hsl(228.5, 77.2%, 51.5%)" stroke-width="1.5"></path><path d="M1443.19 546.45L1443.19 546.45" stroke="hsl(228.5, 77.2%, 51.5%)" stroke-width="1.5"></path><path d="M1443.19 546.45L1542.17 557.67" stroke="hsl(228.5, 77.2%, 51.5%)" stroke-width="1.5"></path><path d="M1443.19 546.45L1302.99 639.11" stroke="hsl(228.5, 77.2%, 51.5%)" stroke-width="1.5"></path><path d="M1443.19 546.45L1272.83 505.2" stroke="hsl(228.5, 77.2%, 51.5%)" stroke-width="1.5"></path><path d="M1443.19 546.45L1565.19 687.86" stroke="hsl(228.5, 77.2%, 51.5%)" stroke-width="1.5"></path><path d="M1599.66 -112.02L1599.66 -112.02" stroke="hsl(228.5, 77.2%, 51.5%)" stroke-width="1.5"></path><path d="M1599.66 -112.02L1612.06 84.36" stroke="hsl(228.5, 77.2%, 51.5%)" stroke-width="1.5"></path><path d="M1599.66 -112.02L1411.15 77.27" stroke="hsl(228.5, 77.2%, 51.5%)" stroke-width="1.5"></path><path d="M1599.66 -112.02L1280.85 -112.47" stroke="hsl(228.5, 77.2%, 51.5%)" stroke-width="1.5"></path><path d="M1612.06 84.36L1612.06 84.36" stroke="hsl(228.5, 77.2%, 51.5%)" stroke-width="1.5"></path><path d="M1612.06 84.36L1547.03 206.91" stroke="hsl(228.5, 77.2%, 51.5%)" stroke-width="1.5"></path><path d="M1547.03 206.91L1547.03 206.91" stroke="hsl(228.5, 77.2%, 51.5%)" stroke-width="1.5"></path><path d="M1547.03 206.91L1461.66 342.5" stroke="hsl(228.5, 77.2%, 51.5%)" stroke-width="1.5"></path><path d="M1547.03 206.91L1587.95 375.12" stroke="hsl(228.5, 77.2%, 51.5%)" stroke-width="1.5"></path><path d="M1587.95 375.12L1587.95 375.12" stroke="hsl(228.5, 77.2%, 51.5%)" stroke-width="1.5"></path><path d="M1587.95 375.12L1542.17 557.67" stroke="hsl(228.5, 77.2%, 51.5%)" stroke-width="1.5"></path><path d="M1542.17 557.67L1542.17 557.67" stroke="hsl(228.5, 77.2%, 51.5%)" stroke-width="1.5"></path><path d="M1542.17 557.67L1565.19 687.86" stroke="hsl(228.5, 77.2%, 51.5%)" stroke-width="1.5"></path><path d="M1565.19 687.86L1565.19 687.86" stroke="hsl(228.5, 77.2%, 51.5%)" stroke-width="1.5"></path><circle r="25" cx="841.45" cy="340.37" fill="url(#SvgjsRadialGradient1001)"></circle><circle r="25" cx="973.95" cy="521.8" fill="url(#SvgjsRadialGradient1001)"></circle><circle r="25" cx="1157.9" cy="103.91" fill="url(#SvgjsRadialGradient1001)"></circle><circle r="25" cx="1140.91" cy="680" fill="url(#SvgjsRadialGradient1001)"></circle><circle r="25" cx="1280.85" cy="-112.47" fill="url(#SvgjsRadialGradient1001)"></circle><circle r="25" cx="1458.96" cy="688.11" fill="url(#SvgjsRadialGradient1001)"></circle><circle r="5" cx="-65.55" cy="494.67" fill="#8b9ad9"></circle><circle r="5" cx="-93.53" cy="677.47" fill="#8b9ad9"></circle><circle r="5" cx="77.67" cy="500.67" fill="#8b9ad9"></circle><circle r="5" cx="70.16" cy="701.69" fill="#8b9ad9"></circle><circle r="5" cx="259.5" cy="542.86" fill="#8b9ad9"></circle><circle r="5" cx="200.24" cy="708.71" fill="#8b9ad9"></circle><circle r="5" cx="387.63" cy="517.95" fill="#8b9ad9"></circle><circle r="5" cx="382.73" cy="700.45" fill="#8b9ad9"></circle><circle r="5" cx="515.01" cy="534.44" fill="#8b9ad9"></circle><circle r="5" cx="527.37" cy="700.32" fill="#8b9ad9"></circle><circle r="5" cx="639.78" cy="386.88" fill="#8b9ad9"></circle><circle r="5" cx="662.87" cy="488.62" fill="#8b9ad9"></circle><circle r="5" cx="706.3" cy="641.63" fill="#8b9ad9"></circle><circle r="5" cx="860.81" cy="698.78" fill="#8b9ad9"></circle><circle r="5" cx="1011.06" cy="357.3" fill="#8b9ad9"></circle><circle r="5" cx="1002.85" cy="644.31" fill="#8b9ad9"></circle><circle r="5" cx="1156.91" cy="-38.59" fill="#8b9ad9"></circle><circle r="5" cx="1142.88" cy="191.35" fill="#8b9ad9"></circle><circle r="5" cx="1097.48" cy="403.2" fill="#8b9ad9"></circle><circle r="5" cx="1127.72" cy="535.59" fill="#8b9ad9"></circle><circle r="5" cx="1288.03" cy="76.7" fill="#8b9ad9"></circle><circle r="5" cx="1286.14" cy="225" fill="#8b9ad9"></circle><circle r="5" cx="1265.77" cy="394.78" fill="#8b9ad9"></circle><circle r="5" cx="1272.83" cy="505.2" fill="#8b9ad9"></circle><circle r="5" cx="1302.99" cy="639.11" fill="#8b9ad9"></circle><circle r="5" cx="1441.64" cy="-41.95" fill="#8b9ad9"></circle><circle r="5" cx="1411.15" cy="77.27" fill="#8b9ad9"></circle><circle r="5" cx="1418.11" cy="194.5" fill="#8b9ad9"></circle><circle r="5" cx="1461.66" cy="342.5" fill="#8b9ad9"></circle><circle r="5" cx="1443.19" cy="546.45" fill="#8b9ad9"></circle><circle r="5" cx="1599.66" cy="-112.02" fill="#8b9ad9"></circle><circle r="5" cx="1612.06" cy="84.36" fill="#8b9ad9"></circle><circle r="5" cx="1547.03" cy="206.91" fill="#8b9ad9"></circle><circle r="5" cx="1587.95" cy="375.12" fill="#8b9ad9"></circle><circle r="5" cx="1542.17" cy="557.67" fill="#8b9ad9"></circle><circle r="5" cx="1565.19" cy="687.86" fill="#8b9ad9"></circle></g><defs><mask id="SvgjsMask1000"><rect width="1440" height="560" fill="#ffffff"></rect></mask><radialGradient id="SvgjsRadialGradient1001"><stop stop-color="#ffffff" offset="0.1"></stop><stop stop-color="#1735b3" offset="0.2"></stop><stop stop-color="rgba(23, 53, 179, 0)" offset="1"></stop></radialGradient></defs></svg>