<svg xmlns="http://www.w3.org/2000/svg" version="1.1" xmlns:xlink="http://www.w3.org/1999/xlink" xmlns:svgjs="http://svgjs.com/svgjs" width="1440" height="700" preserveAspectRatio="none" viewBox="0 0 1440 700"><g mask="url(&quot;#SvgjsMask1016&quot;)" fill="none"><rect width="1440" height="700" x="0" y="0" fill="#0e2a47"></rect><path d="M-97.54 506.1L-97.54 506.1" stroke="#132e65" stroke-width="1.5"></path><path d="M-97.54 506.1L-108.39 637.55" stroke="#132e65" stroke-width="1.5"></path><path d="M-97.54 506.1L48.43 523.93" stroke="#132e65" stroke-width="1.5"></path><path d="M-97.54 506.1L77.52 664.89" stroke="#132e65" stroke-width="1.5"></path><path d="M-97.54 506.1L-86.85 859.47" stroke="#132e65" stroke-width="1.5"></path><path d="M-97.54 506.1L39.75 851.08" stroke="#132e65" stroke-width="1.5"></path><path d="M-108.39 637.55L-108.39 637.55" stroke="#132e65" stroke-width="1.5"></path><path d="M-108.39 637.55L77.52 664.89" stroke="#132e65" stroke-width="1.5"></path><path d="M-108.39 637.55L48.43 523.93" stroke="#132e65" stroke-width="1.5"></path><path d="M-108.39 637.55L-86.85 859.47" stroke="#132e65" stroke-width="1.5"></path><path d="M-86.85 859.47L-86.85 859.47" stroke="#132e65" stroke-width="1.5"></path><path d="M-86.85 859.47L39.75 851.08" stroke="#132e65" stroke-width="1.5"></path><path d="M-86.85 859.47L77.52 664.89" stroke="#132e65" stroke-width="1.5"></path><path d="M-86.85 859.47L238.03 830.56" stroke="#132e65" stroke-width="1.5"></path><path d="M48.43 523.93L48.43 523.93" stroke="#132e65" stroke-width="1.5"></path><path d="M48.43 523.93L77.52 664.89" stroke="#132e65" stroke-width="1.5"></path><path d="M77.52 664.89L77.52 664.89" stroke="#132e65" stroke-width="1.5"></path><path d="M77.52 664.89L39.75 851.08" stroke="#132e65" stroke-width="1.5"></path><path d="M77.52 664.89L238.03 830.56" stroke="#132e65" stroke-width="1.5"></path><path d="M39.75 851.08L39.75 851.08" stroke="#132e65" stroke-width="1.5"></path><path d="M39.75 851.08L238.03 830.56" stroke="#132e65" stroke-width="1.5"></path><path d="M39.75 851.08L-108.39 637.55" stroke="#132e65" stroke-width="1.5"></path><path d="M238.03 830.56L238.03 830.56" stroke="#132e65" stroke-width="1.5"></path><path d="M238.03 830.56L371.09 827.22" stroke="#132e65" stroke-width="1.5"></path><path d="M238.03 830.56L337.71 670.65" stroke="#132e65" stroke-width="1.5"></path><path d="M406.84 548.48L406.84 548.48" stroke="#132e65" stroke-width="1.5"></path><path d="M406.84 548.48L337.71 670.65" stroke="#132e65" stroke-width="1.5"></path><path d="M406.84 548.48L490.46 676.97" stroke="#132e65" stroke-width="1.5"></path><path d="M406.84 548.48L558.36 517.84" stroke="#132e65" stroke-width="1.5"></path><path d="M406.84 548.48L538.27 378.48" stroke="#132e65" stroke-width="1.5"></path><path d="M406.84 548.48L371.09 827.22" stroke="#132e65" stroke-width="1.5"></path><path d="M406.84 548.48L687.42 493.59" stroke="#132e65" stroke-width="1.5"></path><path d="M337.71 670.65L337.71 670.65" stroke="#132e65" stroke-width="1.5"></path><path d="M337.71 670.65L490.46 676.97" stroke="#132e65" stroke-width="1.5"></path><path d="M337.71 670.65L371.09 827.22" stroke="#132e65" stroke-width="1.5"></path><path d="M371.09 827.22L371.09 827.22" stroke="#132e65" stroke-width="1.5"></path><path d="M371.09 827.22L494.35 824.01" stroke="#132e65" stroke-width="1.5"></path><path d="M371.09 827.22L490.46 676.97" stroke="#132e65" stroke-width="1.5"></path><path d="M538.27 378.48L538.27 378.48" stroke="#132e65" stroke-width="1.5"></path><path d="M538.27 378.48L651.19 376.43" stroke="#132e65" stroke-width="1.5"></path><path d="M538.27 378.48L558.36 517.84" stroke="#132e65" stroke-width="1.5"></path><path d="M538.27 378.48L687.42 493.59" stroke="#132e65" stroke-width="1.5"></path><path d="M558.36 517.84L558.36 517.84" stroke="#132e65" stroke-width="1.5"></path><path d="M558.36 517.84L687.42 493.59" stroke="#132e65" stroke-width="1.5"></path><path d="M558.36 517.84L651.19 376.43" stroke="#132e65" stroke-width="1.5"></path><path d="M558.36 517.84L490.46 676.97" stroke="#132e65" stroke-width="1.5"></path><path d="M558.36 517.84L685.82 683.31" stroke="#132e65" stroke-width="1.5"></path><path d="M490.46 676.97L490.46 676.97" stroke="#132e65" stroke-width="1.5"></path><path d="M490.46 676.97L494.35 824.01" stroke="#132e65" stroke-width="1.5"></path><path d="M494.35 824.01L494.35 824.01" stroke="#132e65" stroke-width="1.5"></path><path d="M494.35 824.01L696.47 838.29" stroke="#132e65" stroke-width="1.5"></path><path d="M494.35 824.01L337.71 670.65" stroke="#132e65" stroke-width="1.5"></path><path d="M494.35 824.01L685.82 683.31" stroke="#132e65" stroke-width="1.5"></path><path d="M651.19 376.43L651.19 376.43" stroke="#132e65" stroke-width="1.5"></path><path d="M651.19 376.43L687.42 493.59" stroke="#132e65" stroke-width="1.5"></path><path d="M651.19 376.43L844.5 402.93" stroke="#132e65" stroke-width="1.5"></path><path d="M651.19 376.43L845.67 192.54" stroke="#132e65" stroke-width="1.5"></path><path d="M687.42 493.59L687.42 493.59" stroke="#132e65" stroke-width="1.5"></path><path d="M685.82 683.31L685.82 683.31" stroke="#132e65" stroke-width="1.5"></path><path d="M685.82 683.31L818.57 670.36" stroke="#132e65" stroke-width="1.5"></path><path d="M685.82 683.31L696.47 838.29" stroke="#132e65" stroke-width="1.5"></path><path d="M685.82 683.31L687.42 493.59" stroke="#132e65" stroke-width="1.5"></path><path d="M685.82 683.31L490.46 676.97" stroke="#132e65" stroke-width="1.5"></path><path d="M696.47 838.29L696.47 838.29" stroke="#132e65" stroke-width="1.5"></path><path d="M696.47 838.29L836.96 860.8" stroke="#132e65" stroke-width="1.5"></path><path d="M845.67 192.54L845.67 192.54" stroke="#132e65" stroke-width="1.5"></path><path d="M845.67 192.54L959.64 257.09" stroke="#132e65" stroke-width="1.5"></path><path d="M845.67 192.54L997.53 82.76" stroke="#132e65" stroke-width="1.5"></path><path d="M845.67 192.54L948.15 365.1" stroke="#132e65" stroke-width="1.5"></path><path d="M845.67 192.54L844.5 402.93" stroke="#132e65" stroke-width="1.5"></path><path d="M845.67 192.54L1088.75 245.09" stroke="#132e65" stroke-width="1.5"></path><path d="M844.5 402.93L844.5 402.93" stroke="#132e65" stroke-width="1.5"></path><path d="M844.5 402.93L948.15 365.1" stroke="#132e65" stroke-width="1.5"></path><path d="M844.5 402.93L687.42 493.59" stroke="#132e65" stroke-width="1.5"></path><path d="M844.5 402.93L959.64 257.09" stroke="#132e65" stroke-width="1.5"></path><path d="M844.5 402.93L1007.58 506.94" stroke="#132e65" stroke-width="1.5"></path><path d="M818.57 670.36L818.57 670.36" stroke="#132e65" stroke-width="1.5"></path><path d="M818.57 670.36L836.96 860.8" stroke="#132e65" stroke-width="1.5"></path><path d="M818.57 670.36L1010.86 666.49" stroke="#132e65" stroke-width="1.5"></path><path d="M818.57 670.36L696.47 838.29" stroke="#132e65" stroke-width="1.5"></path><path d="M818.57 670.36L687.42 493.59" stroke="#132e65" stroke-width="1.5"></path><path d="M836.96 860.8L836.96 860.8" stroke="#132e65" stroke-width="1.5"></path><path d="M836.96 860.8L956.49 858.16" stroke="#132e65" stroke-width="1.5"></path><path d="M836.96 860.8L685.82 683.31" stroke="#132e65" stroke-width="1.5"></path><path d="M836.96 860.8L1010.86 666.49" stroke="#132e65" stroke-width="1.5"></path><path d="M943.97 -68.19L943.97 -68.19" stroke="#132e65" stroke-width="1.5"></path><path d="M943.97 -68.19L997.53 82.76" stroke="#132e65" stroke-width="1.5"></path><path d="M943.97 -68.19L1112.27 -102.09" stroke="#132e65" stroke-width="1.5"></path><path d="M943.97 -68.19L1137.09 39.36" stroke="#132e65" stroke-width="1.5"></path><path d="M997.53 82.76L997.53 82.76" stroke="#132e65" stroke-width="1.5"></path><path d="M997.53 82.76L1137.09 39.36" stroke="#132e65" stroke-width="1.5"></path><path d="M997.53 82.76L959.64 257.09" stroke="#132e65" stroke-width="1.5"></path><path d="M997.53 82.76L1088.75 245.09" stroke="#132e65" stroke-width="1.5"></path><path d="M959.64 257.09L959.64 257.09" stroke="#132e65" stroke-width="1.5"></path><path d="M959.64 257.09L948.15 365.1" stroke="#132e65" stroke-width="1.5"></path><path d="M959.64 257.09L1088.75 245.09" stroke="#132e65" stroke-width="1.5"></path><path d="M959.64 257.09L1119.93 347.89" stroke="#132e65" stroke-width="1.5"></path><path d="M948.15 365.1L948.15 365.1" stroke="#132e65" stroke-width="1.5"></path><path d="M1007.58 506.94L1007.58 506.94" stroke="#132e65" stroke-width="1.5"></path><path d="M1007.58 506.94L1129.66 513.68" stroke="#132e65" stroke-width="1.5"></path><path d="M1007.58 506.94L948.15 365.1" stroke="#132e65" stroke-width="1.5"></path><path d="M1007.58 506.94L1010.86 666.49" stroke="#132e65" stroke-width="1.5"></path><path d="M1007.58 506.94L1119.93 347.89" stroke="#132e65" stroke-width="1.5"></path><path d="M1007.58 506.94L1125.83 670.17" stroke="#132e65" stroke-width="1.5"></path><path d="M1010.86 666.49L1010.86 666.49" stroke="#132e65" stroke-width="1.5"></path><path d="M1010.86 666.49L1125.83 670.17" stroke="#132e65" stroke-width="1.5"></path><path d="M1010.86 666.49L1129.66 513.68" stroke="#132e65" stroke-width="1.5"></path><path d="M1010.86 666.49L956.49 858.16" stroke="#132e65" stroke-width="1.5"></path><path d="M1010.86 666.49L1146.67 828.54" stroke="#132e65" stroke-width="1.5"></path><path d="M956.49 858.16L956.49 858.16" stroke="#132e65" stroke-width="1.5"></path><path d="M956.49 858.16L1146.67 828.54" stroke="#132e65" stroke-width="1.5"></path><path d="M956.49 858.16L818.57 670.36" stroke="#132e65" stroke-width="1.5"></path><path d="M956.49 858.16L1125.83 670.17" stroke="#132e65" stroke-width="1.5"></path><path d="M956.49 858.16L696.47 838.29" stroke="#132e65" stroke-width="1.5"></path><path d="M1112.27 -102.09L1112.27 -102.09" stroke="#132e65" stroke-width="1.5"></path><path d="M1112.27 -102.09L1137.09 39.36" stroke="#132e65" stroke-width="1.5"></path><path d="M1112.27 -102.09L1307.4 -42.47" stroke="#132e65" stroke-width="1.5"></path><path d="M1112.27 -102.09L997.53 82.76" stroke="#132e65" stroke-width="1.5"></path><path d="M1112.27 -102.09L1240.52 86.32" stroke="#132e65" stroke-width="1.5"></path><path d="M1112.27 -102.09L1394.77 -90.01" stroke="#132e65" stroke-width="1.5"></path><path d="M1137.09 39.36L1137.09 39.36" stroke="#132e65" stroke-width="1.5"></path><path d="M1137.09 39.36L1240.52 86.32" stroke="#132e65" stroke-width="1.5"></path><path d="M1137.09 39.36L1307.4 -42.47" stroke="#132e65" stroke-width="1.5"></path><path d="M1137.09 39.36L1088.75 245.09" stroke="#132e65" stroke-width="1.5"></path><path d="M1088.75 245.09L1088.75 245.09" stroke="#132e65" stroke-width="1.5"></path><path d="M1088.75 245.09L1119.93 347.89" stroke="#132e65" stroke-width="1.5"></path><path d="M1088.75 245.09L948.15 365.1" stroke="#132e65" stroke-width="1.5"></path><path d="M1088.75 245.09L1240.52 86.32" stroke="#132e65" stroke-width="1.5"></path><path d="M1119.93 347.89L1119.93 347.89" stroke="#132e65" stroke-width="1.5"></path><path d="M1119.93 347.89L1129.66 513.68" stroke="#132e65" stroke-width="1.5"></path><path d="M1119.93 347.89L1280.55 391.04" stroke="#132e65" stroke-width="1.5"></path><path d="M1119.93 347.89L948.15 365.1" stroke="#132e65" stroke-width="1.5"></path><path d="M1129.66 513.68L1129.66 513.68" stroke="#132e65" stroke-width="1.5"></path><path d="M1129.66 513.68L1125.83 670.17" stroke="#132e65" stroke-width="1.5"></path><path d="M1129.66 513.68L1298.31 521.46" stroke="#132e65" stroke-width="1.5"></path><path d="M1129.66 513.68L1280.55 391.04" stroke="#132e65" stroke-width="1.5"></path><path d="M1125.83 670.17L1125.83 670.17" stroke="#132e65" stroke-width="1.5"></path><path d="M1125.83 670.17L1278.54 657.06" stroke="#132e65" stroke-width="1.5"></path><path d="M1146.67 828.54L1146.67 828.54" stroke="#132e65" stroke-width="1.5"></path><path d="M1146.67 828.54L1125.83 670.17" stroke="#132e65" stroke-width="1.5"></path><path d="M1146.67 828.54L1278.54 657.06" stroke="#132e65" stroke-width="1.5"></path><path d="M1146.67 828.54L1436.26 845.58" stroke="#132e65" stroke-width="1.5"></path><path d="M1307.4 -42.47L1307.4 -42.47" stroke="#132e65" stroke-width="1.5"></path><path d="M1307.4 -42.47L1394.77 -90.01" stroke="#132e65" stroke-width="1.5"></path><path d="M1307.4 -42.47L1240.52 86.32" stroke="#132e65" stroke-width="1.5"></path><path d="M1240.52 86.32L1240.52 86.32" stroke="#132e65" stroke-width="1.5"></path><path d="M1240.52 86.32L1312.12 251.42" stroke="#132e65" stroke-width="1.5"></path><path d="M1240.52 86.32L1406.81 201.87" stroke="#132e65" stroke-width="1.5"></path><path d="M1240.52 86.32L1451.27 98.45" stroke="#132e65" stroke-width="1.5"></path><path d="M1312.12 251.42L1312.12 251.42" stroke="#132e65" stroke-width="1.5"></path><path d="M1312.12 251.42L1406.81 201.87" stroke="#132e65" stroke-width="1.5"></path><path d="M1312.12 251.42L1280.55 391.04" stroke="#132e65" stroke-width="1.5"></path><path d="M1312.12 251.42L1451.27 98.45" stroke="#132e65" stroke-width="1.5"></path><path d="M1312.12 251.42L1119.93 347.89" stroke="#132e65" stroke-width="1.5"></path><path d="M1312.12 251.42L1088.75 245.09" stroke="#132e65" stroke-width="1.5"></path><path d="M1280.55 391.04L1280.55 391.04" stroke="#132e65" stroke-width="1.5"></path><path d="M1280.55 391.04L1298.31 521.46" stroke="#132e65" stroke-width="1.5"></path><path d="M1280.55 391.04L1433.78 529.21" stroke="#132e65" stroke-width="1.5"></path><path d="M1280.55 391.04L1406.81 201.87" stroke="#132e65" stroke-width="1.5"></path><path d="M1298.31 521.46L1298.31 521.46" stroke="#132e65" stroke-width="1.5"></path><path d="M1298.31 521.46L1433.78 529.21" stroke="#132e65" stroke-width="1.5"></path><path d="M1298.31 521.46L1278.54 657.06" stroke="#132e65" stroke-width="1.5"></path><path d="M1278.54 657.06L1278.54 657.06" stroke="#132e65" stroke-width="1.5"></path><path d="M1394.77 -90.01L1394.77 -90.01" stroke="#132e65" stroke-width="1.5"></path><path d="M1394.77 -90.01L1580.54 -92.74" stroke="#132e65" stroke-width="1.5"></path><path d="M1451.27 98.45L1451.27 98.45" stroke="#132e65" stroke-width="1.5"></path><path d="M1451.27 98.45L1406.81 201.87" stroke="#132e65" stroke-width="1.5"></path><path d="M1451.27 98.45L1589.7 51.92" stroke="#132e65" stroke-width="1.5"></path><path d="M1451.27 98.45L1568.75 222.42" stroke="#132e65" stroke-width="1.5"></path><path d="M1451.27 98.45L1394.77 -90.01" stroke="#132e65" stroke-width="1.5"></path><path d="M1451.27 98.45L1307.4 -42.47" stroke="#132e65" stroke-width="1.5"></path><path d="M1406.81 201.87L1406.81 201.87" stroke="#132e65" stroke-width="1.5"></path><path d="M1406.81 201.87L1568.75 222.42" stroke="#132e65" stroke-width="1.5"></path><path d="M1433.78 529.21L1433.78 529.21" stroke="#132e65" stroke-width="1.5"></path><path d="M1433.78 529.21L1562.82 549.13" stroke="#132e65" stroke-width="1.5"></path><path d="M1433.78 529.21L1278.54 657.06" stroke="#132e65" stroke-width="1.5"></path><path d="M1436.26 845.58L1436.26 845.58" stroke="#132e65" stroke-width="1.5"></path><path d="M1436.26 845.58L1597.97 793.62" stroke="#132e65" stroke-width="1.5"></path><path d="M1436.26 845.58L1541.4 703.4" stroke="#132e65" stroke-width="1.5"></path><path d="M1436.26 845.58L1278.54 657.06" stroke="#132e65" stroke-width="1.5"></path><path d="M1580.54 -92.74L1580.54 -92.74" stroke="#132e65" stroke-width="1.5"></path><path d="M1580.54 -92.74L1589.7 51.92" stroke="#132e65" stroke-width="1.5"></path><path d="M1589.7 51.92L1589.7 51.92" stroke="#132e65" stroke-width="1.5"></path><path d="M1568.75 222.42L1568.75 222.42" stroke="#132e65" stroke-width="1.5"></path><path d="M1568.75 222.42L1580.9 354.72" stroke="#132e65" stroke-width="1.5"></path><path d="M1568.75 222.42L1589.7 51.92" stroke="#132e65" stroke-width="1.5"></path><path d="M1568.75 222.42L1312.12 251.42" stroke="#132e65" stroke-width="1.5"></path><path d="M1580.9 354.72L1580.9 354.72" stroke="#132e65" stroke-width="1.5"></path><path d="M1580.9 354.72L1562.82 549.13" stroke="#132e65" stroke-width="1.5"></path><path d="M1562.82 549.13L1562.82 549.13" stroke="#132e65" stroke-width="1.5"></path><path d="M1562.82 549.13L1541.4 703.4" stroke="#132e65" stroke-width="1.5"></path><path d="M1562.82 549.13L1597.97 793.62" stroke="#132e65" stroke-width="1.5"></path><path d="M1541.4 703.4L1541.4 703.4" stroke="#132e65" stroke-width="1.5"></path><path d="M1541.4 703.4L1597.97 793.62" stroke="#132e65" stroke-width="1.5"></path><path d="M1541.4 703.4L1433.78 529.21" stroke="#132e65" stroke-width="1.5"></path><path d="M1541.4 703.4L1278.54 657.06" stroke="#132e65" stroke-width="1.5"></path><path d="M1597.97 793.62L1597.97 793.62" stroke="#132e65" stroke-width="1.5"></path><path d="M1597.97 793.62L1433.78 529.21" stroke="#132e65" stroke-width="1.5"></path><circle r="5" cx="-97.54" cy="506.1" fill="#132e65"></circle><circle r="5" cx="-108.39" cy="637.55" fill="#132e65"></circle><circle r="5" cx="-86.85" cy="859.47" fill="#132e65"></circle><circle r="5" cx="48.43" cy="523.93" fill="#132e65"></circle><circle r="5" cx="77.52" cy="664.89" fill="#132e65"></circle><circle r="5" cx="39.75" cy="851.08" fill="#132e65"></circle><circle r="5" cx="238.03" cy="830.56" fill="#132e65"></circle><circle r="5" cx="406.84" cy="548.48" fill="#132e65"></circle><circle r="5" cx="337.71" cy="670.65" fill="#132e65"></circle><circle r="5" cx="371.09" cy="827.22" fill="#132e65"></circle><circle r="5" cx="538.27" cy="378.48" fill="#132e65"></circle><circle r="5" cx="558.36" cy="517.84" fill="#132e65"></circle><circle r="5" cx="490.46" cy="676.97" fill="#132e65"></circle><circle r="5" cx="494.35" cy="824.01" fill="#132e65"></circle><circle r="5" cx="651.19" cy="376.43" fill="#132e65"></circle><circle r="5" cx="687.42" cy="493.59" fill="#132e65"></circle><circle r="5" cx="685.82" cy="683.31" fill="#132e65"></circle><circle r="5" cx="696.47" cy="838.29" fill="#132e65"></circle><circle r="5" cx="845.67" cy="192.54" fill="#132e65"></circle><circle r="5" cx="844.5" cy="402.93" fill="#132e65"></circle><circle r="5" cx="818.57" cy="670.36" fill="#132e65"></circle><circle r="5" cx="836.96" cy="860.8" fill="#132e65"></circle><circle r="5" cx="943.97" cy="-68.19" fill="#132e65"></circle><circle r="5" cx="997.53" cy="82.76" fill="#132e65"></circle><circle r="5" cx="959.64" cy="257.09" fill="#132e65"></circle><circle r="5" cx="948.15" cy="365.1" fill="#132e65"></circle><circle r="5" cx="1007.58" cy="506.94" fill="#132e65"></circle><circle r="5" cx="1010.86" cy="666.49" fill="#132e65"></circle><circle r="5" cx="956.49" cy="858.16" fill="#132e65"></circle><circle r="5" cx="1112.27" cy="-102.09" fill="#132e65"></circle><circle r="5" cx="1137.09" cy="39.36" fill="#132e65"></circle><circle r="5" cx="1088.75" cy="245.09" fill="#132e65"></circle><circle r="5" cx="1119.93" cy="347.89" fill="#132e65"></circle><circle r="5" cx="1129.66" cy="513.68" fill="#132e65"></circle><circle r="5" cx="1125.83" cy="670.17" fill="#132e65"></circle><circle r="5" cx="1146.67" cy="828.54" fill="#132e65"></circle><circle r="5" cx="1307.4" cy="-42.47" fill="#132e65"></circle><circle r="5" cx="1240.52" cy="86.32" fill="#132e65"></circle><circle r="5" cx="1312.12" cy="251.42" fill="#132e65"></circle><circle r="5" cx="1280.55" cy="391.04" fill="#132e65"></circle><circle r="5" cx="1298.31" cy="521.46" fill="#132e65"></circle><circle r="5" cx="1278.54" cy="657.06" fill="#132e65"></circle><circle r="5" cx="1394.77" cy="-90.01" fill="#132e65"></circle><circle r="5" cx="1451.27" cy="98.45" fill="#132e65"></circle><circle r="5" cx="1406.81" cy="201.87" fill="#132e65"></circle><circle r="5" cx="1433.78" cy="529.21" fill="#132e65"></circle><circle r="5" cx="1436.26" cy="845.58" fill="#132e65"></circle><circle r="5" cx="1580.54" cy="-92.74" fill="#132e65"></circle><circle r="5" cx="1589.7" cy="51.92" fill="#132e65"></circle><circle r="5" cx="1568.75" cy="222.42" fill="#132e65"></circle><circle r="5" cx="1580.9" cy="354.72" fill="#132e65"></circle><circle r="5" cx="1562.82" cy="549.13" fill="#132e65"></circle><circle r="5" cx="1541.4" cy="703.4" fill="#132e65"></circle><circle r="5" cx="1597.97" cy="793.62" fill="#132e65"></circle><path d="M854.6 824.29L854.6 824.29" stroke="hsl(228.5, 77.2%, 51.5%)" stroke-width="1.5"></path><path d="M854.6 824.29L945.52 820.51" stroke="hsl(228.5, 77.2%, 51.5%)" stroke-width="1.5"></path><path d="M854.6 824.29L814.98 646.17" stroke="hsl(228.5, 77.2%, 51.5%)" stroke-width="1.5"></path><path d="M854.6 824.29L973.3 683.2" stroke="hsl(228.5, 77.2%, 51.5%)" stroke-width="1.5"></path><path d="M973.3 683.2L973.3 683.2" stroke="hsl(228.5, 77.2%, 51.5%)" stroke-width="1.5"></path><path d="M973.3 683.2L1008.46 549.9" stroke="hsl(228.5, 77.2%, 51.5%)" stroke-width="1.5"></path><path d="M973.3 683.2L945.52 820.51" stroke="hsl(228.5, 77.2%, 51.5%)" stroke-width="1.5"></path><path d="M945.52 820.51L945.52 820.51" stroke="hsl(228.5, 77.2%, 51.5%)" stroke-width="1.5"></path><path d="M945.52 820.51L1129.24 819.79" stroke="hsl(228.5, 77.2%, 51.5%)" stroke-width="1.5"></path><path d="M945.52 820.51L814.98 646.17" stroke="hsl(228.5, 77.2%, 51.5%)" stroke-width="1.5"></path><path d="M1151.64 83.25L1151.64 83.25" stroke="hsl(228.5, 77.2%, 51.5%)" stroke-width="1.5"></path><path d="M1151.64 83.25L1272.42 93.49" stroke="hsl(228.5, 77.2%, 51.5%)" stroke-width="1.5"></path><path d="M1151.64 83.25L1131.09 208.72" stroke="hsl(228.5, 77.2%, 51.5%)" stroke-width="1.5"></path><path d="M1151.64 83.25L1281.19 211.84" stroke="hsl(228.5, 77.2%, 51.5%)" stroke-width="1.5"></path><path d="M1151.64 83.25L1285.49 -56.45" stroke="hsl(228.5, 77.2%, 51.5%)" stroke-width="1.5"></path><path d="M1303.49 499.09L1303.49 499.09" stroke="hsl(228.5, 77.2%, 51.5%)" stroke-width="1.5"></path><path d="M1303.49 499.09L1256.93 397.62" stroke="hsl(228.5, 77.2%, 51.5%)" stroke-width="1.5"></path><path d="M1303.49 499.09L1433.54 533.99" stroke="hsl(228.5, 77.2%, 51.5%)" stroke-width="1.5"></path><path d="M1303.49 499.09L1438.51 367.11" stroke="hsl(228.5, 77.2%, 51.5%)" stroke-width="1.5"></path><path d="M1430.24 260.63L1430.24 260.63" stroke="hsl(228.5, 77.2%, 51.5%)" stroke-width="1.5"></path><path d="M1430.24 260.63L1438.51 367.11" stroke="hsl(228.5, 77.2%, 51.5%)" stroke-width="1.5"></path><path d="M1430.24 260.63L1281.19 211.84" stroke="hsl(228.5, 77.2%, 51.5%)" stroke-width="1.5"></path><path d="M1430.24 260.63L1589.82 196.48" stroke="hsl(228.5, 77.2%, 51.5%)" stroke-width="1.5"></path><path d="M1430.24 260.63L1544.33 404.44" stroke="hsl(228.5, 77.2%, 51.5%)" stroke-width="1.5"></path><path d="M1430.24 260.63L1436.94 63.08" stroke="hsl(228.5, 77.2%, 51.5%)" stroke-width="1.5"></path><path d="M1430.24 260.63L1256.93 397.62" stroke="hsl(228.5, 77.2%, 51.5%)" stroke-width="1.5"></path><path d="M1595.87 102.95L1595.87 102.95" stroke="hsl(228.5, 77.2%, 51.5%)" stroke-width="1.5"></path><path d="M1595.87 102.95L1589.82 196.48" stroke="hsl(228.5, 77.2%, 51.5%)" stroke-width="1.5"></path><path d="M1595.87 102.95L1436.94 63.08" stroke="hsl(228.5, 77.2%, 51.5%)" stroke-width="1.5"></path><path d="M1595.87 102.95L1430.24 260.63" stroke="hsl(228.5, 77.2%, 51.5%)" stroke-width="1.5"></path><path d="M1595.87 102.95L1419.42 -95.61" stroke="hsl(228.5, 77.2%, 51.5%)" stroke-width="1.5"></path><path d="M1595.87 102.95L1544.33 404.44" stroke="hsl(228.5, 77.2%, 51.5%)" stroke-width="1.5"></path><path d="M-106.45 692.71L-106.45 692.71" stroke="hsl(228.5, 77.2%, 51.5%)" stroke-width="1.5"></path><path d="M-106.45 692.71L-66.53 806.92" stroke="hsl(228.5, 77.2%, 51.5%)" stroke-width="1.5"></path><path d="M-106.45 692.71L70.04 652.93" stroke="hsl(228.5, 77.2%, 51.5%)" stroke-width="1.5"></path><path d="M-106.45 692.71L98.44 846.5" stroke="hsl(228.5, 77.2%, 51.5%)" stroke-width="1.5"></path><path d="M-106.45 692.71L200.74 656.23" stroke="hsl(228.5, 77.2%, 51.5%)" stroke-width="1.5"></path><path d="M-66.53 806.92L-66.53 806.92" stroke="hsl(228.5, 77.2%, 51.5%)" stroke-width="1.5"></path><path d="M-66.53 806.92L98.44 846.5" stroke="hsl(228.5, 77.2%, 51.5%)" stroke-width="1.5"></path><path d="M70.04 652.93L70.04 652.93" stroke="hsl(228.5, 77.2%, 51.5%)" stroke-width="1.5"></path><path d="M70.04 652.93L200.74 656.23" stroke="hsl(228.5, 77.2%, 51.5%)" stroke-width="1.5"></path><path d="M70.04 652.93L98.44 846.5" stroke="hsl(228.5, 77.2%, 51.5%)" stroke-width="1.5"></path><path d="M70.04 652.93L-66.53 806.92" stroke="hsl(228.5, 77.2%, 51.5%)" stroke-width="1.5"></path><path d="M98.44 846.5L98.44 846.5" stroke="hsl(228.5, 77.2%, 51.5%)" stroke-width="1.5"></path><path d="M98.44 846.5L211.56 808.26" stroke="hsl(228.5, 77.2%, 51.5%)" stroke-width="1.5"></path><path d="M98.44 846.5L200.74 656.23" stroke="hsl(228.5, 77.2%, 51.5%)" stroke-width="1.5"></path><path d="M98.44 846.5L344.5 824.57" stroke="hsl(228.5, 77.2%, 51.5%)" stroke-width="1.5"></path><path d="M200.74 656.23L200.74 656.23" stroke="hsl(228.5, 77.2%, 51.5%)" stroke-width="1.5"></path><path d="M211.56 808.26L211.56 808.26" stroke="hsl(228.5, 77.2%, 51.5%)" stroke-width="1.5"></path><path d="M211.56 808.26L344.5 824.57" stroke="hsl(228.5, 77.2%, 51.5%)" stroke-width="1.5"></path><path d="M211.56 808.26L200.74 656.23" stroke="hsl(228.5, 77.2%, 51.5%)" stroke-width="1.5"></path><path d="M211.56 808.26L70.04 652.93" stroke="hsl(228.5, 77.2%, 51.5%)" stroke-width="1.5"></path><path d="M211.56 808.26L392.92 686.69" stroke="hsl(228.5, 77.2%, 51.5%)" stroke-width="1.5"></path><path d="M392.92 686.69L392.92 686.69" stroke="hsl(228.5, 77.2%, 51.5%)" stroke-width="1.5"></path><path d="M392.92 686.69L531.12 711.05" stroke="hsl(228.5, 77.2%, 51.5%)" stroke-width="1.5"></path><path d="M392.92 686.69L344.5 824.57" stroke="hsl(228.5, 77.2%, 51.5%)" stroke-width="1.5"></path><path d="M344.5 824.57L344.5 824.57" stroke="hsl(228.5, 77.2%, 51.5%)" stroke-width="1.5"></path><path d="M344.5 824.57L549.82 812.16" stroke="hsl(228.5, 77.2%, 51.5%)" stroke-width="1.5"></path><path d="M344.5 824.57L531.12 711.05" stroke="hsl(228.5, 77.2%, 51.5%)" stroke-width="1.5"></path><path d="M344.5 824.57L200.74 656.23" stroke="hsl(228.5, 77.2%, 51.5%)" stroke-width="1.5"></path><path d="M547.08 507.92L547.08 507.92" stroke="hsl(228.5, 77.2%, 51.5%)" stroke-width="1.5"></path><path d="M547.08 507.92L672.55 496.55" stroke="hsl(228.5, 77.2%, 51.5%)" stroke-width="1.5"></path><path d="M547.08 507.92L531.12 711.05" stroke="hsl(228.5, 77.2%, 51.5%)" stroke-width="1.5"></path><path d="M531.12 711.05L531.12 711.05" stroke="hsl(228.5, 77.2%, 51.5%)" stroke-width="1.5"></path><path d="M531.12 711.05L549.82 812.16" stroke="hsl(228.5, 77.2%, 51.5%)" stroke-width="1.5"></path><path d="M549.82 812.16L549.82 812.16" stroke="hsl(228.5, 77.2%, 51.5%)" stroke-width="1.5"></path><path d="M549.82 812.16L392.92 686.69" stroke="hsl(228.5, 77.2%, 51.5%)" stroke-width="1.5"></path><path d="M549.82 812.16L547.08 507.92" stroke="hsl(228.5, 77.2%, 51.5%)" stroke-width="1.5"></path><path d="M549.82 812.16L854.6 824.29" stroke="hsl(228.5, 77.2%, 51.5%)" stroke-width="1.5"></path><path d="M672.55 496.55L672.55 496.55" stroke="hsl(228.5, 77.2%, 51.5%)" stroke-width="1.5"></path><path d="M805.12 510.83L805.12 510.83" stroke="hsl(228.5, 77.2%, 51.5%)" stroke-width="1.5"></path><path d="M805.12 510.83L672.55 496.55" stroke="hsl(228.5, 77.2%, 51.5%)" stroke-width="1.5"></path><path d="M805.12 510.83L814.98 646.17" stroke="hsl(228.5, 77.2%, 51.5%)" stroke-width="1.5"></path><path d="M805.12 510.83L1008.46 549.9" stroke="hsl(228.5, 77.2%, 51.5%)" stroke-width="1.5"></path><path d="M805.12 510.83L973.3 683.2" stroke="hsl(228.5, 77.2%, 51.5%)" stroke-width="1.5"></path><path d="M805.12 510.83L1004.3 348.98" stroke="hsl(228.5, 77.2%, 51.5%)" stroke-width="1.5"></path><path d="M814.98 646.17L814.98 646.17" stroke="hsl(228.5, 77.2%, 51.5%)" stroke-width="1.5"></path><path d="M814.98 646.17L973.3 683.2" stroke="hsl(228.5, 77.2%, 51.5%)" stroke-width="1.5"></path><path d="M1004.3 348.98L1004.3 348.98" stroke="hsl(228.5, 77.2%, 51.5%)" stroke-width="1.5"></path><path d="M1004.3 348.98L1154.46 380.29" stroke="hsl(228.5, 77.2%, 51.5%)" stroke-width="1.5"></path><path d="M1004.3 348.98L1131.09 208.72" stroke="hsl(228.5, 77.2%, 51.5%)" stroke-width="1.5"></path><path d="M1004.3 348.98L1008.46 549.9" stroke="hsl(228.5, 77.2%, 51.5%)" stroke-width="1.5"></path><path d="M1004.3 348.98L1114.19 537.18" stroke="hsl(228.5, 77.2%, 51.5%)" stroke-width="1.5"></path><path d="M1008.46 549.9L1008.46 549.9" stroke="hsl(228.5, 77.2%, 51.5%)" stroke-width="1.5"></path><path d="M1008.46 549.9L1114.19 537.18" stroke="hsl(228.5, 77.2%, 51.5%)" stroke-width="1.5"></path><path d="M1008.46 549.9L1134.71 671.14" stroke="hsl(228.5, 77.2%, 51.5%)" stroke-width="1.5"></path><path d="M1008.46 549.9L814.98 646.17" stroke="hsl(228.5, 77.2%, 51.5%)" stroke-width="1.5"></path><path d="M1131.09 208.72L1131.09 208.72" stroke="hsl(228.5, 77.2%, 51.5%)" stroke-width="1.5"></path><path d="M1131.09 208.72L1281.19 211.84" stroke="hsl(228.5, 77.2%, 51.5%)" stroke-width="1.5"></path><path d="M1131.09 208.72L1154.46 380.29" stroke="hsl(228.5, 77.2%, 51.5%)" stroke-width="1.5"></path><path d="M1154.46 380.29L1154.46 380.29" stroke="hsl(228.5, 77.2%, 51.5%)" stroke-width="1.5"></path><path d="M1154.46 380.29L1256.93 397.62" stroke="hsl(228.5, 77.2%, 51.5%)" stroke-width="1.5"></path><path d="M1154.46 380.29L1114.19 537.18" stroke="hsl(228.5, 77.2%, 51.5%)" stroke-width="1.5"></path><path d="M1114.19 537.18L1114.19 537.18" stroke="hsl(228.5, 77.2%, 51.5%)" stroke-width="1.5"></path><path d="M1114.19 537.18L1134.71 671.14" stroke="hsl(228.5, 77.2%, 51.5%)" stroke-width="1.5"></path><path d="M1114.19 537.18L1303.49 499.09" stroke="hsl(228.5, 77.2%, 51.5%)" stroke-width="1.5"></path><path d="M1134.71 671.14L1134.71 671.14" stroke="hsl(228.5, 77.2%, 51.5%)" stroke-width="1.5"></path><path d="M1134.71 671.14L1264.03 700.78" stroke="hsl(228.5, 77.2%, 51.5%)" stroke-width="1.5"></path><path d="M1129.24 819.79L1129.24 819.79" stroke="hsl(228.5, 77.2%, 51.5%)" stroke-width="1.5"></path><path d="M1129.24 819.79L1254.05 846.77" stroke="hsl(228.5, 77.2%, 51.5%)" stroke-width="1.5"></path><path d="M1129.24 819.79L1134.71 671.14" stroke="hsl(228.5, 77.2%, 51.5%)" stroke-width="1.5"></path><path d="M1129.24 819.79L1264.03 700.78" stroke="hsl(228.5, 77.2%, 51.5%)" stroke-width="1.5"></path><path d="M1285.49 -56.45L1285.49 -56.45" stroke="hsl(228.5, 77.2%, 51.5%)" stroke-width="1.5"></path><path d="M1285.49 -56.45L1419.42 -95.61" stroke="hsl(228.5, 77.2%, 51.5%)" stroke-width="1.5"></path><path d="M1285.49 -56.45L1272.42 93.49" stroke="hsl(228.5, 77.2%, 51.5%)" stroke-width="1.5"></path><path d="M1285.49 -56.45L1436.94 63.08" stroke="hsl(228.5, 77.2%, 51.5%)" stroke-width="1.5"></path><path d="M1285.49 -56.45L1281.19 211.84" stroke="hsl(228.5, 77.2%, 51.5%)" stroke-width="1.5"></path><path d="M1272.42 93.49L1272.42 93.49" stroke="hsl(228.5, 77.2%, 51.5%)" stroke-width="1.5"></path><path d="M1272.42 93.49L1281.19 211.84" stroke="hsl(228.5, 77.2%, 51.5%)" stroke-width="1.5"></path><path d="M1281.19 211.84L1281.19 211.84" stroke="hsl(228.5, 77.2%, 51.5%)" stroke-width="1.5"></path><path d="M1281.19 211.84L1256.93 397.62" stroke="hsl(228.5, 77.2%, 51.5%)" stroke-width="1.5"></path><path d="M1281.19 211.84L1154.46 380.29" stroke="hsl(228.5, 77.2%, 51.5%)" stroke-width="1.5"></path><path d="M1256.93 397.62L1256.93 397.62" stroke="hsl(228.5, 77.2%, 51.5%)" stroke-width="1.5"></path><path d="M1264.03 700.78L1264.03 700.78" stroke="hsl(228.5, 77.2%, 51.5%)" stroke-width="1.5"></path><path d="M1264.03 700.78L1254.05 846.77" stroke="hsl(228.5, 77.2%, 51.5%)" stroke-width="1.5"></path><path d="M1264.03 700.78L1393.58 821.19" stroke="hsl(228.5, 77.2%, 51.5%)" stroke-width="1.5"></path><path d="M1264.03 700.78L1453.74 712.31" stroke="hsl(228.5, 77.2%, 51.5%)" stroke-width="1.5"></path><path d="M1264.03 700.78L1303.49 499.09" stroke="hsl(228.5, 77.2%, 51.5%)" stroke-width="1.5"></path><path d="M1254.05 846.77L1254.05 846.77" stroke="hsl(228.5, 77.2%, 51.5%)" stroke-width="1.5"></path><path d="M1254.05 846.77L1393.58 821.19" stroke="hsl(228.5, 77.2%, 51.5%)" stroke-width="1.5"></path><path d="M1419.42 -95.61L1419.42 -95.61" stroke="hsl(228.5, 77.2%, 51.5%)" stroke-width="1.5"></path><path d="M1419.42 -95.61L1436.94 63.08" stroke="hsl(228.5, 77.2%, 51.5%)" stroke-width="1.5"></path><path d="M1419.42 -95.61L1272.42 93.49" stroke="hsl(228.5, 77.2%, 51.5%)" stroke-width="1.5"></path><path d="M1419.42 -95.61L1151.64 83.25" stroke="hsl(228.5, 77.2%, 51.5%)" stroke-width="1.5"></path><path d="M1436.94 63.08L1436.94 63.08" stroke="hsl(228.5, 77.2%, 51.5%)" stroke-width="1.5"></path><path d="M1436.94 63.08L1272.42 93.49" stroke="hsl(228.5, 77.2%, 51.5%)" stroke-width="1.5"></path><path d="M1438.51 367.11L1438.51 367.11" stroke="hsl(228.5, 77.2%, 51.5%)" stroke-width="1.5"></path><path d="M1433.54 533.99L1433.54 533.99" stroke="hsl(228.5, 77.2%, 51.5%)" stroke-width="1.5"></path><path d="M1433.54 533.99L1553.05 639.53" stroke="hsl(228.5, 77.2%, 51.5%)" stroke-width="1.5"></path><path d="M1433.54 533.99L1596.76 508.93" stroke="hsl(228.5, 77.2%, 51.5%)" stroke-width="1.5"></path><path d="M1433.54 533.99L1438.51 367.11" stroke="hsl(228.5, 77.2%, 51.5%)" stroke-width="1.5"></path><path d="M1433.54 533.99L1544.33 404.44" stroke="hsl(228.5, 77.2%, 51.5%)" stroke-width="1.5"></path><path d="M1433.54 533.99L1453.74 712.31" stroke="hsl(228.5, 77.2%, 51.5%)" stroke-width="1.5"></path><path d="M1453.74 712.31L1453.74 712.31" stroke="hsl(228.5, 77.2%, 51.5%)" stroke-width="1.5"></path><path d="M1453.74 712.31L1553.05 639.53" stroke="hsl(228.5, 77.2%, 51.5%)" stroke-width="1.5"></path><path d="M1453.74 712.31L1393.58 821.19" stroke="hsl(228.5, 77.2%, 51.5%)" stroke-width="1.5"></path><path d="M1453.74 712.31L1611.23 837.34" stroke="hsl(228.5, 77.2%, 51.5%)" stroke-width="1.5"></path><path d="M1393.58 821.19L1393.58 821.19" stroke="hsl(228.5, 77.2%, 51.5%)" stroke-width="1.5"></path><path d="M1589.82 196.48L1589.82 196.48" stroke="hsl(228.5, 77.2%, 51.5%)" stroke-width="1.5"></path><path d="M1589.82 196.48L1436.94 63.08" stroke="hsl(228.5, 77.2%, 51.5%)" stroke-width="1.5"></path><path d="M1589.82 196.48L1544.33 404.44" stroke="hsl(228.5, 77.2%, 51.5%)" stroke-width="1.5"></path><path d="M1589.82 196.48L1438.51 367.11" stroke="hsl(228.5, 77.2%, 51.5%)" stroke-width="1.5"></path><path d="M1544.33 404.44L1544.33 404.44" stroke="hsl(228.5, 77.2%, 51.5%)" stroke-width="1.5"></path><path d="M1544.33 404.44L1438.51 367.11" stroke="hsl(228.5, 77.2%, 51.5%)" stroke-width="1.5"></path><path d="M1544.33 404.44L1596.76 508.93" stroke="hsl(228.5, 77.2%, 51.5%)" stroke-width="1.5"></path><path d="M1544.33 404.44L1553.05 639.53" stroke="hsl(228.5, 77.2%, 51.5%)" stroke-width="1.5"></path><path d="M1596.76 508.93L1596.76 508.93" stroke="hsl(228.5, 77.2%, 51.5%)" stroke-width="1.5"></path><path d="M1596.76 508.93L1553.05 639.53" stroke="hsl(228.5, 77.2%, 51.5%)" stroke-width="1.5"></path><path d="M1596.76 508.93L1438.51 367.11" stroke="hsl(228.5, 77.2%, 51.5%)" stroke-width="1.5"></path><path d="M1596.76 508.93L1453.74 712.31" stroke="hsl(228.5, 77.2%, 51.5%)" stroke-width="1.5"></path><path d="M1553.05 639.53L1553.05 639.53" stroke="hsl(228.5, 77.2%, 51.5%)" stroke-width="1.5"></path><path d="M1611.23 837.34L1611.23 837.34" stroke="hsl(228.5, 77.2%, 51.5%)" stroke-width="1.5"></path><path d="M1611.23 837.34L1553.05 639.53" stroke="hsl(228.5, 77.2%, 51.5%)" stroke-width="1.5"></path><path d="M1611.23 837.34L1393.58 821.19" stroke="hsl(228.5, 77.2%, 51.5%)" stroke-width="1.5"></path><circle r="25" cx="854.6" cy="824.29" fill="url(#SvgjsRadialGradient1017)"></circle><circle r="25" cx="973.3" cy="683.2" fill="url(#SvgjsRadialGradient1017)"></circle><circle r="25" cx="945.52" cy="820.51" fill="url(#SvgjsRadialGradient1017)"></circle><circle r="25" cx="1151.64" cy="83.25" fill="url(#SvgjsRadialGradient1017)"></circle><circle r="25" cx="1303.49" cy="499.09" fill="url(#SvgjsRadialGradient1017)"></circle><circle r="25" cx="1430.24" cy="260.63" fill="url(#SvgjsRadialGradient1017)"></circle><circle r="25" cx="1595.87" cy="102.95" fill="url(#SvgjsRadialGradient1017)"></circle><circle r="5" cx="-106.45" cy="692.71" fill="#8b9ad9"></circle><circle r="5" cx="-66.53" cy="806.92" fill="#8b9ad9"></circle><circle r="5" cx="70.04" cy="652.93" fill="#8b9ad9"></circle><circle r="5" cx="98.44" cy="846.5" fill="#8b9ad9"></circle><circle r="5" cx="200.74" cy="656.23" fill="#8b9ad9"></circle><circle r="5" cx="211.56" cy="808.26" fill="#8b9ad9"></circle><circle r="5" cx="392.92" cy="686.69" fill="#8b9ad9"></circle><circle r="5" cx="344.5" cy="824.57" fill="#8b9ad9"></circle><circle r="5" cx="547.08" cy="507.92" fill="#8b9ad9"></circle><circle r="5" cx="531.12" cy="711.05" fill="#8b9ad9"></circle><circle r="5" cx="549.82" cy="812.16" fill="#8b9ad9"></circle><circle r="5" cx="672.55" cy="496.55" fill="#8b9ad9"></circle><circle r="5" cx="805.12" cy="510.83" fill="#8b9ad9"></circle><circle r="5" cx="814.98" cy="646.17" fill="#8b9ad9"></circle><circle r="5" cx="1004.3" cy="348.98" fill="#8b9ad9"></circle><circle r="5" cx="1008.46" cy="549.9" fill="#8b9ad9"></circle><circle r="5" cx="1131.09" cy="208.72" fill="#8b9ad9"></circle><circle r="5" cx="1154.46" cy="380.29" fill="#8b9ad9"></circle><circle r="5" cx="1114.19" cy="537.18" fill="#8b9ad9"></circle><circle r="5" cx="1134.71" cy="671.14" fill="#8b9ad9"></circle><circle r="5" cx="1129.24" cy="819.79" fill="#8b9ad9"></circle><circle r="5" cx="1285.49" cy="-56.45" fill="#8b9ad9"></circle><circle r="5" cx="1272.42" cy="93.49" fill="#8b9ad9"></circle><circle r="5" cx="1281.19" cy="211.84" fill="#8b9ad9"></circle><circle r="5" cx="1256.93" cy="397.62" fill="#8b9ad9"></circle><circle r="5" cx="1264.03" cy="700.78" fill="#8b9ad9"></circle><circle r="5" cx="1254.05" cy="846.77" fill="#8b9ad9"></circle><circle r="5" cx="1419.42" cy="-95.61" fill="#8b9ad9"></circle><circle r="5" cx="1436.94" cy="63.08" fill="#8b9ad9"></circle><circle r="5" cx="1438.51" cy="367.11" fill="#8b9ad9"></circle><circle r="5" cx="1433.54" cy="533.99" fill="#8b9ad9"></circle><circle r="5" cx="1453.74" cy="712.31" fill="#8b9ad9"></circle><circle r="5" cx="1393.58" cy="821.19" fill="#8b9ad9"></circle><circle r="5" cx="1589.82" cy="196.48" fill="#8b9ad9"></circle><circle r="5" cx="1544.33" cy="404.44" fill="#8b9ad9"></circle><circle r="5" cx="1596.76" cy="508.93" fill="#8b9ad9"></circle><circle r="5" cx="1553.05" cy="639.53" fill="#8b9ad9"></circle><circle r="5" cx="1611.23" cy="837.34" fill="#8b9ad9"></circle></g><defs><mask id="SvgjsMask1016"><rect width="1440" height="700" fill="#ffffff"></rect></mask><radialGradient id="SvgjsRadialGradient1017"><stop stop-color="#ffffff" offset="0.1"></stop><stop stop-color="#1735b3" offset="0.2"></stop><stop stop-color="rgba(23, 53, 179, 0)" offset="1"></stop></radialGradient></defs></svg>